<svg xmlns="http://www.w3.org/2000/svg" style="display:none"><symbol id="pd-protein" viewBox="0 0 24 24" fill="none" stroke="currentColor" stroke-width="1.5" stroke-linecap="round" stroke-linejoin="round"><rect x="3" y="7" width="18" height="12" rx="2"/><path d="M3 11.5c2-2 3-2 5 0s3 2 5 0 3-2 5 0 2 1.5 3 1"/></symbol><symbol id="pd-no-added-sugar" viewBox="0 0 24 24" fill="none" stroke="currentColor" stroke-width="1.5" stroke-linecap="round" stroke-linejoin="round"><path d="M5 8.5l7-3.5 7 3.5v7l-7 3.5-7-3.5z"/><path d="M5 8.5l7 3.5 7-3.5M12 12v7"/><path d="M3.5 20.5l17-17"/></symbol><symbol id="pd-gluten-free" viewBox="0 0 24 24" fill="none" stroke="currentColor" stroke-width="1.5" stroke-linecap="round" stroke-linejoin="round"><path d="M12 21v-9"/><path d="M12 12c-3 0-4.5-1.5-4.5-4 2.5 0 4.5 1.5 4.5 4z"/><path d="M12 12c3 0 4.5-1.5 4.5-4-2.5 0-4.5 1.5-4.5 4z"/><path d="M12 16.5c-3 0-4.5-1.5-4.5-4 2.5 0 4.5 1.5 4.5 4z"/><path d="M12 16.5c3 0 4.5-1.5 4.5-4-2.5 0-4.5 1.5-4.5 4z"/><path d="M12 7.5V3"/><path d="M4 20L20 4"/></symbol><symbol id="pd-build-your-box" viewBox="0 0 24 24" fill="none" stroke="currentColor" stroke-width="1.5" stroke-linecap="round" stroke-linejoin="round"><path d="M3 9.5h18V20H3z"/><path d="M3 9.5L6 4h12l3 5.5"/><path d="M9 4v5.5M15 4v5.5"/><circle cx="12" cy="15" r="1" fill="#E0A458" stroke="none"/></symbol><symbol id="pd-subscribe" viewBox="0 0 24 24" fill="none" stroke="currentColor" stroke-width="1.5" stroke-linecap="round" stroke-linejoin="round"><path d="M20 12a8 8 0 0 1-13.7 5.6"/><path d="M4 12a8 8 0 0 1 13.7-5.6"/><path d="M6 21v-4h4"/><path d="M18 3v4h-4"/></symbol><symbol id="pd-baked-in-miami" viewBox="0 0 24 24" fill="none" stroke="currentColor" stroke-width="1.5" stroke-linecap="round" stroke-linejoin="round"><path d="M12 21s-6.5-5.8-6.5-11a6.5 6.5 0 0 1 13 0c0 5.2-6.5 11-6.5 11z"/><circle cx="12" cy="10" r="2"/></symbol><symbol id="pd-small-batch" viewBox="0 0 24 24" fill="none" stroke="currentColor" stroke-width="1.5" stroke-linecap="round" stroke-linejoin="round"><rect x="3" y="4" width="18" height="16" rx="2"/><path d="M3 9.5h18"/><path d="M7 6.75h.01M10 6.75h.01"/><rect x="7" y="12.5" width="10" height="4.5" rx="1"/></symbol><symbol id="pd-verified-reviews" viewBox="0 0 24 24" fill="none" stroke="currentColor" stroke-width="1.5" stroke-linecap="round" stroke-linejoin="round"><path d="M12 3.5l2.6 5.4 5.9.8-4.3 4.2 1 5.9-5.2-2.8-5.2 2.8 1-5.9L3.5 9.7l5.9-.8z"/></symbol></svg>